<?xml version="1.0" standalone="no"?>
<!DOCTYPE svg PUBLIC "-//W3C//DTD SVG 20010904//EN"
 "http://www.w3.org/TR/2001/REC-SVG-20010904/DTD/svg10.dtd">
<svg version="1.0" xmlns="http://www.w3.org/2000/svg"
 width="475.000000pt" height="475.000000pt" viewBox="0 0 475.000000 475.000000"
 preserveAspectRatio="xMidYMid meet">
<metadata>
Created by potrace 1.14, written by Peter Selinger 2001-2017
</metadata>
<g transform="translate(0.000000,475.000000) scale(0.100000,-0.100000)"
fill="#000000" stroke="none">
<path d="M2170 4744 c-1003 -96 -1834 -795 -2090 -1757 -58 -219 -74 -347 -74
-607 0 -265 12 -374 69 -596 210 -821 852 -1475 1668 -1698 230 -63 362 -80
632 -80 202 0 260 4 370 22 522 89 958 315 1322 684 125 126 191 207 293 360
183 276 312 613 366 958 28 175 25 540 -4 715 -44 257 -107 454 -219 683 -110
225 -253 426 -436 611 -306 311 -684 529 -1101 636 -197 50 -325 66 -551 70
-110 1 -220 1 -245 -1z"/>
</g>
</svg>
